<?xml version="1.0" encoding="UTF-8" standalone="no" ?>
<!DOCTYPE svg PUBLIC "-//W3C//DTD SVG 1.1//EN" "http://www.w3.org/Graphics/SVG/1.1/DTD/svg11.dtd">
<svg xmlns="http://www.w3.org/2000/svg" xmlns:xlink="http://www.w3.org/1999/xlink" version="1.1" width="1080" height="1080" viewBox="0 0 1080 1080" xml:space="preserve">
<desc>Created with Fabric.js 5.2.4</desc>
<defs>
</defs>
<g transform="matrix(1 0 0 1 540 540)" id="d9479c6b-a780-4649-8698-b8a466706611"  >
<rect style="stroke: none; stroke-width: 1; stroke-dasharray: none; stroke-linecap: butt; stroke-dashoffset: 0; stroke-linejoin: miter; stroke-miterlimit: 4; fill: rgb(255,255,255); fill-rule: nonzero; opacity: 1; visibility: hidden;" vector-effect="non-scaling-stroke"  x="-540" y="-540" rx="0" ry="0" width="1080" height="1080" />
</g>
<g transform="matrix(1 0 0 1 540 540)" id="142477d1-8896-49ef-bbea-6b27cb56c7af"  >
</g>
<g transform="matrix(1 0 0 -1 593.56 540)" clip-path="url(#CLIPPATH_5)"  >
<clipPath id="CLIPPATH_5" >
	<path transform="matrix(1 0 0 1 -160.21 26.32) translate(-297.64, -420.94)" d="M 0 841.89 L 595.276 841.89 L 595.276 0 L 0 0 Z" stroke-linecap="round" />
</clipPath>
<path style="stroke: none; stroke-width: 1; stroke-dasharray: none; stroke-linecap: butt; stroke-dashoffset: 0; stroke-linejoin: miter; stroke-miterlimit: 4; fill: rgb(35,31,32); fill-rule: nonzero; opacity: 1;" vector-effect="non-scaling-stroke"  transform=" translate(70.67, -126.17)" d="M 0 0 L -141.333 0 C -171.985 0 -196.833 24.848 -196.833 55.5 L -196.833 196.833 C -196.833 227.485 -171.985 252.333 -141.333 252.333 L 0 252.333 C 30.652 252.333 55.5 227.485 55.5 196.833 L 55.5 55.5 C 55.5 24.848 30.652 0 0 0" stroke-linecap="round" />
</g>
<g transform="matrix(1 0 0 -1 505.76 543.25)" clip-path="url(#CLIPPATH_6)"  >
<clipPath id="CLIPPATH_6" >
	<path transform="matrix(1 0 0 1 -72.42 29.57) translate(-297.64, -420.94)" d="M 0 841.89 L 595.276 841.89 L 595.276 0 L 0 0 Z" stroke-linecap="round" />
</clipPath>
<path style="stroke: none; stroke-width: 1; stroke-dasharray: none; stroke-linecap: butt; stroke-dashoffset: 0; stroke-linejoin: miter; stroke-miterlimit: 4; fill: rgb(255,255,255); fill-rule: nonzero; opacity: 1;" vector-effect="non-scaling-stroke"  transform=" translate(-9.87, -23.64)" d="M 0 0 C -2.16 2.408 -3.24 6.292 -3.24 11.65 L -3.24 16.884 L 7.29 16.884 L 7.29 10.218 C 7.29 7.559 8.14 6.23 9.844 6.23 C 10.799 6.23 11.464 6.511 11.837 7.071 C 12.211 7.632 12.398 8.576 12.398 9.906 C 12.398 11.65 12.19 13.094 11.775 14.236 C 11.359 15.378 10.83 16.333 10.187 17.103 C 9.542 17.87 8.39 19.064 6.729 20.685 L 2.118 25.295 C -1.455 28.784 -3.24 32.646 -3.24 36.884 C -3.24 41.452 -2.191 44.931 -0.094 47.319 C 2.003 49.707 5.067 50.902 9.096 50.902 C 13.914 50.902 17.383 49.625 19.501 47.07 C 21.619 44.516 22.678 40.518 22.678 35.077 L 11.775 35.077 L 11.713 38.753 C 11.713 39.459 11.515 40.02 11.121 40.435 C 10.726 40.85 10.176 41.058 9.47 41.058 C 8.639 41.058 8.016 40.829 7.601 40.373 C 7.185 39.915 6.978 39.292 6.978 38.504 C 6.978 36.759 7.975 34.952 9.968 33.083 L 16.199 27.102 C 17.652 25.689 18.856 24.35 19.812 23.083 C 20.768 21.815 21.536 20.32 22.118 18.598 C 22.699 16.873 22.99 14.828 22.99 12.461 C 22.99 7.186 22.024 3.187 20.093 0.467 C 18.162 -2.254 14.973 -3.614 10.529 -3.614 C 5.669 -3.614 2.159 -2.41 0 0" stroke-linecap="round" />
</g>
<g transform="matrix(1 0 0 -1 508.98 612.83)" clip-path="url(#CLIPPATH_7)"  >
<clipPath id="CLIPPATH_7" >
	<path transform="matrix(1 0 0 1 -75.63 99.15) translate(-297.64, -420.94)" d="M 0 841.89 L 595.276 841.89 L 595.276 0 L 0 0 Z" stroke-linecap="round" />
</clipPath>
<path style="stroke: none; stroke-width: 1; stroke-dasharray: none; stroke-linecap: butt; stroke-dashoffset: 0; stroke-linejoin: miter; stroke-miterlimit: 4; fill: rgb(255,255,255); fill-rule: nonzero; opacity: 1;" vector-effect="non-scaling-stroke"  transform=" translate(-15.27, -37.57)" d="M 0 0 L 0 75.146 L 15.047 75.146 L 15.047 12.771 L 30.531 12.771 L 30.531 0 Z" stroke-linecap="round" />
</g>
<g transform="matrix(1 0 0 -1 564.51 543.25)" clip-path="url(#CLIPPATH_8)"  >
<clipPath id="CLIPPATH_8" >
	<path transform="matrix(1 0 0 1 -131.17 29.57) translate(-297.64, -420.94)" d="M 0 841.89 L 595.276 841.89 L 595.276 0 L 0 0 Z" stroke-linecap="round" />
</clipPath>
<path style="stroke: none; stroke-width: 1; stroke-dasharray: none; stroke-linecap: butt; stroke-dashoffset: 0; stroke-linejoin: miter; stroke-miterlimit: 4; fill: rgb(103,188,69); fill-rule: nonzero; opacity: 1;" vector-effect="non-scaling-stroke"  transform=" translate(0.16, 17.41)" d="M 0 0 C -1.786 0 -2.679 -1.35 -2.679 -4.05 L -2.679 -30.154 C -2.679 -31.691 -2.492 -32.855 -2.118 -33.644 C -1.745 -34.434 -1.059 -34.827 -0.062 -34.827 C 0.893 -34.827 1.536 -34.413 1.869 -33.581 C 2.201 -32.751 2.368 -31.588 2.368 -30.093 L 2.368 -3.925 C 2.368 -2.763 2.212 -1.817 1.9 -1.09 C 1.589 -0.363 0.955 0 0 0" stroke-linecap="round" />
</g>
<g transform="matrix(1 0 0 -1 595.42 531.35)" clip-path="url(#CLIPPATH_9)"  >
<clipPath id="CLIPPATH_9" >
	<path transform="matrix(1 0 0 1 -162.07 17.68) translate(-297.64, -420.94)" d="M 0 841.89 L 595.276 841.89 L 595.276 0 L 0 0 Z" stroke-linecap="round" />
</clipPath>
<path style="stroke: none; stroke-width: 1; stroke-dasharray: none; stroke-linecap: butt; stroke-dashoffset: 0; stroke-linejoin: miter; stroke-miterlimit: 4; fill: rgb(103,188,69); fill-rule: nonzero; opacity: 1;" vector-effect="non-scaling-stroke"  transform=" translate(2.4, -0.09)" d="M 0 0 C 0 1.412 -0.062 2.471 -0.187 3.178 C -0.312 3.884 -0.541 4.371 -0.873 4.642 C -1.206 4.912 -1.683 5.047 -2.306 5.047 L -4.798 5.047 L -4.798 -4.859 L -2.243 -4.859 C -0.748 -4.859 0 -3.239 0 0" stroke-linecap="round" />
</g>
<g transform="matrix(1 0 0 -1 611.87 532.09)" clip-path="url(#CLIPPATH_10)"  >
<clipPath id="CLIPPATH_10" >
	<path transform="matrix(1 0 0 1 -178.52 18.42) translate(-297.64, -420.94)" d="M 0 841.89 L 595.276 841.89 L 595.276 0 L 0 0 Z" stroke-linecap="round" />
</clipPath>
<path style="stroke: none; stroke-width: 1; stroke-dasharray: none; stroke-linecap: butt; stroke-dashoffset: 0; stroke-linejoin: miter; stroke-miterlimit: 4; fill: rgb(103,188,69); fill-rule: nonzero; opacity: 1;" vector-effect="non-scaling-stroke"  transform=" translate(-29.75, -37.92)" d="M 0 0 L 0 53.519 L 16.448 53.519 C 19.065 53.519 21.09 52.927 22.523 51.743 C 23.956 50.56 24.921 48.897 25.42 46.759 C 25.918 44.619 26.167 41.889 26.167 38.565 C 26.167 35.533 25.772 33.166 24.984 31.463 C 24.194 29.76 22.824 28.576 20.872 27.912 C 22.492 27.579 23.665 26.769 24.392 25.482 C 25.118 24.194 25.482 22.449 25.482 20.248 L 25.357 0 L 14.891 0 L 14.891 20.934 C 14.891 22.429 14.6 23.384 14.018 23.8 C 13.436 24.215 12.377 24.423 10.841 24.423 L 10.841 0 Z M -4.299 14.579 C -4.299 9.76 -5.42 6.043 -7.663 3.427 C -9.906 0.81 -13.188 -0.499 -17.507 -0.499 C -21.828 -0.499 -25.108 0.819 -27.351 3.458 C -29.594 6.095 -30.715 9.802 -30.715 14.579 L -30.715 40.062 C -30.715 44.672 -29.594 48.15 -27.351 50.497 C -25.108 52.843 -21.828 54.018 -17.507 54.018 C -13.188 54.018 -9.906 52.843 -7.663 50.497 C -5.42 48.15 -4.299 44.672 -4.299 40.062 Z M 27.974 53.519 L 51.399 53.519 L 51.399 43.238 L 45.045 43.238 L 45.045 0 L 34.329 0 L 34.329 43.238 L 27.974 43.238 Z M 24.615 -5.246 L 24.615 -35.34 L 31.614 -5.246 L 46.749 -5.246 L 38.802 -37.777 C 76.116 -32.926 104.943 -1.044 104.943 37.592 C 104.943 79.582 70.903 113.622 28.912 113.622 C -7.615 113.622 -38.114 87.858 -45.435 53.514 C -41.216 53.49 -38.196 52.114 -36.384 49.376 C -34.557 46.612 -33.643 42.574 -33.643 37.258 C -33.643 31.94 -34.453 27.933 -36.073 25.232 C -37.692 22.532 -40.6 21.183 -44.795 21.183 L -45.322 21.183 C -43.195 11.519 -39.24 2.544 -33.821 -5.355 L -33.821 -5.246 L -18.337 -5.246 L -14.589 -24.748 C -13.553 -25.472 -12.499 -26.172 -11.426 -26.845 L -11.426 -5.246 L 3.096 -5.246 L 3.096 -33.935 C 5.268 -34.719 7.485 -35.41 9.744 -35.997 L 9.744 -5.246 Z" stroke-linecap="round" />
</g>
<g transform="matrix(1 0 0 -1 536.44 532.66)" clip-path="url(#CLIPPATH_11)"  >
<clipPath id="CLIPPATH_11" >
	<path transform="matrix(1 0 0 1 -103.09 18.99) translate(-297.64, -420.94)" d="M 0 841.89 L 595.276 841.89 L 595.276 0 L 0 0 Z" stroke-linecap="round" />
</clipPath>
<path style="stroke: none; stroke-width: 1; stroke-dasharray: none; stroke-linecap: butt; stroke-dashoffset: 0; stroke-linejoin: miter; stroke-miterlimit: 4; fill: rgb(103,188,69); fill-rule: nonzero; opacity: 1;" vector-effect="non-scaling-stroke"  transform=" translate(-1.14, -6.32)" d="M 0 0 C 0.452 0.119 0.828 0.292 1.119 0.523 C 1.721 1 2.116 1.685 2.303 2.579 C 2.49 3.472 2.583 4.749 2.583 6.411 C 2.583 8.654 2.334 10.274 1.836 11.27 C 1.475 11.991 0.845 12.442 -0.036 12.642 C -0.195 10.633 -0.3 8.609 -0.3 6.558 C -0.3 4.347 -0.185 2.164 0 0" stroke-linecap="round" />
</g>
<g transform="matrix(1 0 0 -1 529.61 543.25)" clip-path="url(#CLIPPATH_12)"  >
<clipPath id="CLIPPATH_12" >
	<path transform="matrix(1 0 0 1 -96.27 29.57) translate(-297.64, -420.94)" d="M 0 841.89 L 595.276 841.89 L 595.276 0 L 0 0 Z" stroke-linecap="round" />
</clipPath>
<path style="stroke: none; stroke-width: 1; stroke-dasharray: none; stroke-linecap: butt; stroke-dashoffset: 0; stroke-linejoin: miter; stroke-miterlimit: 4; fill: rgb(255,255,255); fill-rule: nonzero; opacity: 1;" vector-effect="non-scaling-stroke"  transform=" translate(3.97, 4.08)" d="M 0 0 L -0.623 0 L -0.623 12.96 L 0.561 12.96 C 0.975 12.96 1.342 12.913 1.68 12.836 C 1.945 16.18 2.415 19.466 3.099 22.674 C 3.061 22.674 3.028 22.679 2.991 22.679 L -11.152 22.679 L -11.152 -30.84 L -0.623 -30.84 L -0.623 -9.657 L 3.211 -9.657 C 2.504 -6.445 2.002 -3.157 1.716 0.194 C 1.234 0.066 0.664 0 0 0" stroke-linecap="round" />
</g>
<g transform="matrix(1 0 0 -1 541.87 532.67)" clip-path="url(#CLIPPATH_13)"  >
<clipPath id="CLIPPATH_13" >
	<path transform="matrix(1 0 0 1 -108.52 18.99) translate(-297.64, -420.94)" d="M 0 841.89 L 595.276 841.89 L 595.276 0 L 0 0 Z" stroke-linecap="round" />
</clipPath>
<path style="stroke: none; stroke-width: 1; stroke-dasharray: none; stroke-linecap: butt; stroke-dashoffset: 0; stroke-linejoin: miter; stroke-miterlimit: 4; fill: rgb(255,255,255); fill-rule: nonzero; opacity: 1;" vector-effect="non-scaling-stroke"  transform=" translate(4.18, -12.12)" d="M 0 0 C 1.62 2.7 2.43 6.708 2.43 12.025 C 2.43 17.342 1.516 21.38 -0.311 24.144 C -2.124 26.881 -5.143 28.258 -9.362 28.282 C -10.046 25.073 -10.516 21.788 -10.781 18.443 C -9.899 18.244 -9.27 17.792 -8.909 17.071 C -8.411 16.075 -8.162 14.455 -8.162 12.212 C -8.162 10.55 -8.255 9.273 -8.442 8.38 C -8.629 7.486 -9.024 6.801 -9.625 6.324 C -9.917 6.093 -10.293 5.921 -10.745 5.801 C -10.458 2.45 -9.956 -0.837 -9.249 -4.05 L -8.722 -4.05 C -4.527 -4.05 -1.62 -2.7 0 0" stroke-linecap="round" />
</g>
<g transform="matrix(1 0 0 -1 564.61 543.25)" clip-path="url(#CLIPPATH_14)"  >
<clipPath id="CLIPPATH_14" >
	<path transform="matrix(1 0 0 1 -131.26 29.57) translate(-297.64, -420.94)" d="M 0 841.89 L 595.276 841.89 L 595.276 0 L 0 0 Z" stroke-linecap="round" />
</clipPath>
<path style="stroke: none; stroke-width: 1; stroke-dasharray: none; stroke-linecap: butt; stroke-dashoffset: 0; stroke-linejoin: miter; stroke-miterlimit: 4; fill: rgb(255,255,255); fill-rule: nonzero; opacity: 1;" vector-effect="non-scaling-stroke"  transform=" translate(2.43, -12.68)" d="M 0 0 C 0 -1.495 -0.167 -2.658 -0.499 -3.488 C -0.832 -4.32 -1.475 -4.734 -2.43 -4.734 C -3.427 -4.734 -4.112 -4.341 -4.486 -3.551 C -4.86 -2.763 -5.047 -1.599 -5.047 -0.062 L -5.047 26.043 C -5.047 28.743 -4.154 30.093 -2.368 30.093 C -1.413 30.093 -0.779 29.729 -0.467 29.003 C -0.156 28.275 0 27.33 0 26.168 Z M -2.43 39.938 C -6.75 39.938 -10.031 38.763 -12.274 36.417 C -14.517 34.07 -15.638 30.592 -15.638 25.981 L -15.638 0.499 C -15.638 -4.278 -14.517 -7.985 -12.274 -10.622 C -10.031 -13.261 -6.75 -14.579 -2.43 -14.579 C 1.89 -14.579 5.171 -13.271 7.414 -10.653 C 9.657 -8.037 10.778 -4.32 10.778 0.499 L 10.778 25.981 C 10.778 30.592 9.657 34.07 7.414 36.417 C 5.171 38.763 1.89 39.938 -2.43 39.938" stroke-linecap="round" />
</g>
<g transform="matrix(1 0 0 -1 595.19 543.25)" clip-path="url(#CLIPPATH_15)"  >
<clipPath id="CLIPPATH_15" >
	<path transform="matrix(1 0 0 1 -161.85 29.57) translate(-297.64, -420.94)" d="M 0 841.89 L 595.276 841.89 L 595.276 0 L 0 0 Z" stroke-linecap="round" />
</clipPath>
<path style="stroke: none; stroke-width: 1; stroke-dasharray: none; stroke-linecap: butt; stroke-dashoffset: 0; stroke-linejoin: miter; stroke-miterlimit: 4; fill: rgb(255,255,255); fill-rule: nonzero; opacity: 1;" vector-effect="non-scaling-stroke"  transform=" translate(-2.18, 16.85)" d="M 0 0 L 2.492 0 C 3.115 0 3.592 -0.135 3.925 -0.405 C 4.257 -0.676 4.486 -1.163 4.611 -1.869 C 4.735 -2.576 4.798 -3.635 4.798 -5.047 C 4.798 -8.286 4.05 -9.906 2.555 -9.906 L 0 -9.906 Z M -0.062 -19.189 C 1.474 -19.189 2.533 -19.397 3.115 -19.812 C 3.697 -20.229 3.988 -21.184 3.988 -22.679 L 3.988 -43.612 L 14.455 -43.612 L 14.579 -23.364 C 14.579 -21.163 14.215 -19.418 13.489 -18.13 C 12.762 -16.844 11.589 -16.033 9.969 -15.7 C 11.921 -15.036 13.292 -13.853 14.081 -12.149 C 14.87 -10.446 15.265 -8.079 15.265 -5.047 C 15.265 -1.724 15.016 1.007 14.517 3.146 C 14.019 5.285 13.053 6.947 11.62 8.131 C 10.187 9.314 8.162 9.906 5.545 9.906 L -10.903 9.906 L -10.903 -43.612 L -0.062 -43.612 Z" stroke-linecap="round" />
</g>
<g transform="matrix(1 0 0 -1 621.8 543.25)" clip-path="url(#CLIPPATH_16)"  >
<clipPath id="CLIPPATH_16" >
	<path transform="matrix(1 0 0 1 -188.46 29.57) translate(-297.64, -420.94)" d="M 0 841.89 L 595.276 841.89 L 595.276 0 L 0 0 Z" stroke-linecap="round" />
</clipPath>
<path style="stroke: none; stroke-width: 1; stroke-dasharray: none; stroke-linecap: butt; stroke-dashoffset: 0; stroke-linejoin: miter; stroke-miterlimit: 4; fill: rgb(255,255,255); fill-rule: nonzero; opacity: 1;" vector-effect="non-scaling-stroke"  transform=" translate(-5.36, -26.76)" d="M 0 0 L 10.716 0 L 10.716 43.238 L 17.07 43.238 L 17.07 53.519 L -6.355 53.519 L -6.355 43.238 L 0 43.238 Z" stroke-linecap="round" />
</g>
<g transform="matrix(1 0 0 -1 534.99 612.83)" clip-path="url(#CLIPPATH_17)"  >
<clipPath id="CLIPPATH_17" >
	<path transform="matrix(1 0 0 1 -101.65 99.15) translate(-297.64, -420.94)" d="M 0 841.89 L 595.276 841.89 L 595.276 0 L 0 0 Z" stroke-linecap="round" />
</clipPath>
<path style="stroke: none; stroke-width: 1; stroke-dasharray: none; stroke-linecap: butt; stroke-dashoffset: 0; stroke-linejoin: miter; stroke-miterlimit: 4; fill: rgb(255,255,255); fill-rule: nonzero; opacity: 1;" vector-effect="non-scaling-stroke"  transform=" translate(-399.29, -321.79)" d="M 392.031 284.216 L 406.553 284.216 L 406.553 359.362 L 392.031 359.362 Z" stroke-linecap="round" />
</g>
<g transform="matrix(1 0 0 -1 566.75 612.89)" clip-path="url(#CLIPPATH_18)"  >
<clipPath id="CLIPPATH_18" >
	<path transform="matrix(1 0 0 1 -133.41 99.21) translate(-297.64, -420.94)" d="M 0 841.89 L 595.276 841.89 L 595.276 0 L 0 0 Z" stroke-linecap="round" />
</clipPath>
<path style="stroke: none; stroke-width: 1; stroke-dasharray: none; stroke-linecap: butt; stroke-dashoffset: 0; stroke-linejoin: miter; stroke-miterlimit: 4; fill: rgb(255,255,255); fill-rule: nonzero; opacity: 1;" vector-effect="non-scaling-stroke"  transform=" translate(3.94, 1.67)" d="M 0 0 L -3.162 16.452 C -10.68 21.708 -17.205 28.279 -22.395 35.845 L -22.395 -39.192 L -7.699 -39.192 L -7.699 -1.576 L -0.175 -39.192 L 14.522 -39.192 L 14.522 7.266 C 9.401 9.115 4.543 11.506 0 14.356 Z" stroke-linecap="round" />
</g>
<g transform="matrix(1 0 0 -1 577.95 589.6)" clip-path="url(#CLIPPATH_19)"  >
<clipPath id="CLIPPATH_19" >
	<path transform="matrix(1 0 0 1 -144.6 75.93) translate(-297.64, -420.94)" d="M 0 841.89 L 595.276 841.89 L 595.276 0 L 0 0 Z" stroke-linecap="round" />
</clipPath>
<path style="stroke: none; stroke-width: 1; stroke-dasharray: none; stroke-linecap: butt; stroke-dashoffset: 0; stroke-linejoin: miter; stroke-miterlimit: 4; fill: rgb(255,255,255); fill-rule: nonzero; opacity: 1;" vector-effect="non-scaling-stroke"  transform=" translate(-7.26, 14.34)" d="M 0 0 L 0 -21.599 C 4.543 -24.449 9.401 -26.84 14.522 -28.688 L 14.522 0 Z" stroke-linecap="round" />
</g>
<g transform="matrix(1 0 0 -1 557.91 585.01)" clip-path="url(#CLIPPATH_20)"  >
<clipPath id="CLIPPATH_20" >
	<path transform="matrix(1 0 0 1 -124.56 71.33) translate(-297.64, -420.94)" d="M 0 841.89 L 595.276 841.89 L 595.276 0 L 0 0 Z" stroke-linecap="round" />
</clipPath>
<path style="stroke: none; stroke-width: 1; stroke-dasharray: none; stroke-linecap: butt; stroke-dashoffset: 0; stroke-linejoin: miter; stroke-miterlimit: 4; fill: rgb(255,255,255); fill-rule: nonzero; opacity: 1;" vector-effect="non-scaling-stroke"  transform=" translate(9.62, -9.75)" d="M 0 0 L -3.749 19.502 L -19.233 19.502 L -19.233 19.393 C -14.043 11.827 -7.517 5.255 0 0" stroke-linecap="round" />
</g>
<g transform="matrix(1 0 0 -1 611.24 628.21)" clip-path="url(#CLIPPATH_21)"  >
<clipPath id="CLIPPATH_21" >
	<path transform="matrix(1 0 0 1 -177.89 114.53) translate(-297.64, -420.94)" d="M 0 841.89 L 595.276 841.89 L 595.276 0 L 0 0 Z" stroke-linecap="round" />
</clipPath>
<path style="stroke: none; stroke-width: 1; stroke-dasharray: none; stroke-linecap: butt; stroke-dashoffset: 0; stroke-linejoin: miter; stroke-miterlimit: 4; fill: rgb(255,255,255); fill-rule: nonzero; opacity: 1;" vector-effect="non-scaling-stroke"  transform=" translate(-0.21, 19.76)" d="M 0 0 C -6.622 0 -13.044 0.85 -19.169 2.441 L -19.169 -41.954 L -4.209 -41.954 L -4.209 -5.562 L 4.014 -41.954 L 19.586 -41.954 L 9.437 -1.188 L 9.889 0.661 C 6.65 0.24 3.354 0 0 0" stroke-linecap="round" />
</g>
<g transform="matrix(1 0 0 -1 610.36 591.86)" clip-path="url(#CLIPPATH_22)"  >
<clipPath id="CLIPPATH_22" >
	<path transform="matrix(1 0 0 1 -177.02 78.18) translate(-297.64, -420.94)" d="M 0 841.89 L 595.276 841.89 L 595.276 0 L 0 0 Z" stroke-linecap="round" />
</clipPath>
<path style="stroke: none; stroke-width: 1; stroke-dasharray: none; stroke-linecap: butt; stroke-dashoffset: 0; stroke-linejoin: miter; stroke-miterlimit: 4; fill: rgb(255,255,255); fill-rule: nonzero; opacity: 1;" vector-effect="non-scaling-stroke"  transform=" translate(10.56, -15.94)" d="M 0 0 L 7.947 32.531 L -7.188 32.531 L -14.187 2.437 L -14.187 32.531 L -29.058 32.531 L -29.058 1.78 C -22.934 0.189 -16.511 -0.661 -9.889 -0.661 C -6.535 -0.661 -3.239 -0.421 0 0" stroke-linecap="round" />
</g>
<g transform="matrix(1 0 0 -1 610.09 465.78)" clip-path="url(#CLIPPATH_23)"  >
<clipPath id="CLIPPATH_23" >
	<path transform="matrix(1 0 0 1 -176.74 -47.89) translate(-297.64, -420.94)" d="M 0 841.89 L 595.276 841.89 L 595.276 0 L 0 0 Z" stroke-linecap="round" />
</clipPath>
<path style="stroke: none; stroke-width: 1; stroke-dasharray: none; stroke-linecap: butt; stroke-dashoffset: 0; stroke-linejoin: miter; stroke-miterlimit: 4; fill: rgb(246,146,30); fill-rule: nonzero; opacity: 1;" vector-effect="non-scaling-stroke"  transform=" translate(0, 43.5)" d="M 0 0 L 0 -87" stroke-linecap="round" />
</g>
<g transform="matrix(1 0 0 -1 610.09 465.78)" clip-path="url(#CLIPPATH_24)"  >
<clipPath id="CLIPPATH_24" >
	<path transform="matrix(1 0 0 1 -176.74 -47.89) translate(-297.64, -420.94)" d="M 0 841.89 L 595.276 841.89 L 595.276 0 L 0 0 Z" stroke-linecap="round" />
</clipPath>
<path style="stroke: none; stroke-width: 1; stroke-dasharray: none; stroke-linecap: butt; stroke-dashoffset: 0; stroke-linejoin: miter; stroke-miterlimit: 4; fill: rgb(255,255,255); fill-rule: nonzero; opacity: 1;" vector-effect="non-scaling-stroke"  transform=" translate(0, -46)" d="M 0 0 C -1.381 0 -2.5 1.119 -2.5 2.5 L -2.5 89.5 C -2.5 90.881 -1.381 92 0 92 C 1.381 92 2.5 90.881 2.5 89.5 L 2.5 2.5 C 2.5 1.119 1.381 0 0 0" stroke-linecap="round" />
</g>
<g transform="matrix(1 0 0 -1 650.47 536.93)" clip-path="url(#CLIPPATH_25)"  >
<clipPath id="CLIPPATH_25" >
	<path transform="matrix(1 0 0 1 -217.13 23.25) translate(-297.64, -420.94)" d="M 0 841.89 L 595.276 841.89 L 595.276 0 L 0 0 Z" stroke-linecap="round" />
</clipPath>
<path style="stroke: none; stroke-width: 1; stroke-dasharray: none; stroke-linecap: butt; stroke-dashoffset: 0; stroke-linejoin: miter; stroke-miterlimit: 4; fill: rgb(255,255,255); fill-rule: nonzero; opacity: 1;" vector-effect="non-scaling-stroke"  transform=" translate(9.5, -85.17)" d="M 0 0 C 0.366 0 0.738 0.081 1.089 0.252 C 2.332 0.854 2.85 2.35 2.248 3.592 C -9.92 28.673 -16.403 56.653 -16.502 84.51 C -16.602 112.818 -10.118 141.254 2.248 166.744 C 2.85 167.986 2.332 169.481 1.089 170.084 C -0.154 170.687 -1.649 170.169 -2.251 168.926 C -14.947 142.755 -21.605 113.559 -21.502 84.492 C -21.4 55.891 -14.744 27.161 -2.251 1.41 C -1.819 0.519 -0.928 0 0 0" stroke-linecap="round" />
</g>
<g transform="matrix(1 0 0 -1 573.82 481.75)" clip-path="url(#CLIPPATH_26)"  >
<clipPath id="CLIPPATH_26" >
	<path transform="matrix(1 0 0 1 -140.48 -31.92) translate(-297.64, -420.94)" d="M 0 841.89 L 595.276 841.89 L 595.276 0 L 0 0 Z" stroke-linecap="round" />
</clipPath>
<path style="stroke: none; stroke-width: 1; stroke-dasharray: none; stroke-linecap: butt; stroke-dashoffset: 0; stroke-linejoin: miter; stroke-miterlimit: 4; fill: rgb(255,255,255); fill-rule: nonzero; opacity: 1;" vector-effect="non-scaling-stroke"  transform=" translate(-10.9, 26.4)" d="M 0 0 C -0.603 1.242 -0.084 2.737 1.158 3.34 C 2.401 3.944 3.896 3.424 4.499 2.182 C 13.423 -16.215 19.349 -36.107 22.056 -56.397 L 17.017 -56.397 C 14.341 -36.863 8.596 -17.72 0 0" stroke-linecap="round" />
</g>
</svg>