<?xml version="1.0" encoding="utf-8"?>
<svg xmlns="http://www.w3.org/2000/svg" version="1.1" width="595.276" height="841.89" viewBox="329.12 316.948 258.426 258.006">
  <defs>
    <clipPath id="clip_0">
      <path transform="matrix(1,0,0,-1,0,841.89)" d="M0 841.89H595.276V0H0Z"/>
    </clipPath>
  </defs>
  <g>
    <g clip-path="url(#clip_0)">
      <path transform="matrix(1,0,0,-1,528.5184,573.4369)" d="M0 0H-141.333C-171.985 0-196.833 24.848-196.833 55.5V196.833C-196.833 227.485-171.985 252.333-141.333 252.333H0C30.652 252.333 55.5 227.485 55.5 196.833V55.5C55.5 24.848 30.652 0 0 0" fill="#231f20"/>
      <path transform="matrix(1,0,0,-1,360.182,474.1661)" d="M0 0C-2.16 2.408-3.24 6.292-3.24 11.65V16.884H7.29V10.218C7.29 7.559 8.14 6.23 9.844 6.23 10.799 6.23 11.464 6.511 11.837 7.071 12.211 7.632 12.398 8.576 12.398 9.906 12.398 11.65 12.19 13.094 11.775 14.236 11.359 15.378 10.83 16.333 10.187 17.103 9.542 17.87 8.39 19.064 6.729 20.685L2.118 25.295C-1.455 28.784-3.24 32.646-3.24 36.884-3.24 41.452-2.191 44.931-.094 47.319 2.003 49.707 5.067 50.902 9.096 50.902 13.914 50.902 17.383 49.625 19.501 47.07 21.619 44.516 22.678 40.518 22.678 35.077H11.775L11.713 38.753C11.713 39.459 11.515 40.02 11.121 40.435 10.726 40.85 10.176 41.058 9.47 41.058 8.639 41.058 8.016 40.829 7.601 40.373 7.185 39.915 6.978 39.292 6.978 38.504 6.978 36.759 7.975 34.952 9.968 33.083L16.199 27.102C17.652 25.689 18.856 24.35 19.812 23.083 20.768 21.815 21.536 20.32 22.118 18.598 22.699 16.873 22.99 14.828 22.99 12.461 22.99 7.186 22.024 3.187 20.093 .467 18.162-2.254 14.973-3.614 10.529-3.614 5.669-3.614 2.159-2.41 0 0" fill="#ffffff"/>
      <path transform="matrix(1,0,0,-1,358.0013,557.6735)" d="M0 0V75.146H15.047V12.771H30.531V0Z" fill="#ffffff"/>
      <path transform="matrix(1,0,0,-1,428.9642,433.10844)" d="M0 0C-1.786 0-2.679-1.35-2.679-4.05V-30.154C-2.679-31.691-2.492-32.855-2.118-33.644-1.745-34.434-1.059-34.827-.062-34.827 .893-34.827 1.536-34.413 1.869-33.581 2.201-32.751 2.368-31.588 2.368-30.093V-3.925C2.368-2.763 2.212-1.817 1.9-1.09 1.589-.363 .955 0 0 0" fill="#67bc45"/>
      <path transform="matrix(1,0,0,-1,462.1097,438.7159)" d="M0 0C0 1.412-.062 2.471-.187 3.178-.312 3.884-.541 4.371-.873 4.642-1.206 4.912-1.683 5.047-2.306 5.047H-4.798V-4.859H-2.243C-.748-4.859 0-3.239 0 0" fill="#67bc45"/>
      <path transform="matrix(1,0,0,-1,446.4091,477.2813)" d="M0 0V53.519H16.448C19.065 53.519 21.09 52.927 22.523 51.743 23.956 50.56 24.921 48.897 25.42 46.759 25.918 44.619 26.167 41.889 26.167 38.565 26.167 35.533 25.772 33.166 24.984 31.463 24.194 29.76 22.824 28.576 20.872 27.912 22.492 27.579 23.665 26.769 24.392 25.482 25.118 24.194 25.482 22.449 25.482 20.248L25.357 0H14.891V20.934C14.891 22.429 14.6 23.384 14.018 23.8 13.436 24.215 12.377 24.423 10.841 24.423V0ZM-4.299 14.579C-4.299 9.76-5.42 6.043-7.663 3.427-9.906 .81-13.188-.499-17.507-.499-21.828-.499-25.108 .819-27.351 3.458-29.594 6.095-30.715 9.802-30.715 14.579V40.062C-30.715 44.672-29.594 48.15-27.351 50.497-25.108 52.843-21.828 54.018-17.507 54.018-13.188 54.018-9.906 52.843-7.663 50.497-5.42 48.15-4.299 44.672-4.299 40.062ZM27.974 53.519H51.399V43.238H45.045V0H34.329V43.238H27.974ZM24.615-5.246V-35.34L31.614-5.246H46.749L38.802-37.777C76.116-32.926 104.943-1.044 104.943 37.592 104.943 79.582 70.903 113.622 28.912 113.622-7.615 113.622-38.114 87.858-45.435 53.514-41.216 53.49-38.196 52.114-36.384 49.376-34.557 46.612-33.643 42.574-33.643 37.258-33.643 31.94-34.453 27.933-36.073 25.232-37.692 22.532-40.6 21.183-44.795 21.183H-45.322C-43.195 11.519-39.24 2.544-33.821-5.355V-5.246H-18.337L-14.589-24.748C-13.553-25.472-12.499-26.172-11.426-26.845V-5.246H3.096V-33.935C5.268-34.719 7.485-35.41 9.744-35.997V-5.246Z" fill="#67bc45"/>
      <path transform="matrix(1,0,0,-1,399.5916,446.2477)" d="M0 0C.452 .119 .828 .292 1.119 .523 1.721 1 2.116 1.685 2.303 2.579 2.49 3.472 2.583 4.749 2.583 6.411 2.583 8.654 2.334 10.274 1.836 11.27 1.475 11.991 .845 12.442-.036 12.642-.195 10.633-.3 8.609-.3 6.558-.3 4.347-.185 2.164 0 0" fill="#67bc45"/>
      <path transform="matrix(1,0,0,-1,397.8759,446.44154)" d="M0 0H-.623V12.96H.561C.975 12.96 1.342 12.913 1.68 12.836 1.945 16.18 2.415 19.466 3.099 22.674 3.061 22.674 3.028 22.679 2.991 22.679H-11.152V-30.84H-.623V-9.657H3.211C2.504-6.445 2.002-3.157 1.716 .194 1.234 .066 .664 0 0 0" fill="#ffffff"/>
      <path transform="matrix(1,0,0,-1,410.3363,452.04893)" d="M0 0C1.62 2.7 2.43 6.708 2.43 12.025 2.43 17.342 1.516 21.38-.311 24.144-2.124 26.881-5.143 28.258-9.362 28.282-10.046 25.073-10.516 21.788-10.781 18.443-9.899 18.244-9.27 17.792-8.909 17.071-8.411 16.075-8.162 14.455-8.162 12.212-8.162 10.55-8.255 9.273-8.442 8.38-8.629 7.486-9.024 6.801-9.625 6.324-9.917 6.093-10.293 5.921-10.745 5.801-10.458 2.45-9.956-.837-9.249-4.05H-8.722C-4.527-4.05-1.62-2.7 0 0" fill="#ffffff"/>
      <path transform="matrix(1,0,0,-1,431.3319,463.2012)" d="M0 0C0-1.495-.167-2.658-.499-3.488-.832-4.32-1.475-4.734-2.43-4.734-3.427-4.734-4.112-4.341-4.486-3.551-4.86-2.763-5.047-1.599-5.047-.062V26.043C-5.047 28.743-4.154 30.093-2.368 30.093-1.413 30.093-.779 29.729-.467 29.003-.156 28.275 0 27.33 0 26.168ZM-2.43 39.938C-6.75 39.938-10.031 38.763-12.274 36.417-14.517 34.07-15.638 30.592-15.638 25.981V.499C-15.638-4.278-14.517-7.985-12.274-10.622-10.031-13.261-6.75-14.579-2.43-14.579 1.89-14.579 5.171-13.271 7.414-10.653 9.657-8.037 10.778-4.32 10.778 .499V25.981C10.778 30.592 9.657 34.07 7.414 36.417 5.171 38.763 1.89 39.938-2.43 39.938" fill="#ffffff"/>
      <path transform="matrix(1,0,0,-1,457.3119,433.669)" d="M0 0H2.492C3.115 0 3.592-.135 3.925-.405 4.257-.676 4.486-1.163 4.611-1.869 4.735-2.576 4.798-3.635 4.798-5.047 4.798-8.286 4.05-9.906 2.555-9.906H0ZM-.062-19.189C1.474-19.189 2.533-19.397 3.115-19.812 3.697-20.229 3.988-21.184 3.988-22.679V-43.612H14.455L14.579-23.364C14.579-21.163 14.215-19.418 13.489-18.13 12.762-16.844 11.589-16.033 9.969-15.7 11.921-15.036 13.292-13.853 14.081-12.149 14.87-10.446 15.265-8.079 15.265-5.047 15.265-1.724 15.016 1.007 14.517 3.146 14.019 5.285 13.053 6.947 11.62 8.131 10.187 9.314 8.162 9.906 5.545 9.906H-10.903V-43.612H-.062Z" fill="#ffffff"/>
      <path transform="matrix(1,0,0,-1,480.7382,477.2813)" d="M0 0H10.716V43.238H17.07V53.519H-6.355V43.238H0Z" fill="#ffffff"/>
      <path transform="matrix(1,0,0,-1,0,841.89)" d="M392.031 284.216H406.553V359.362H392.031Z" fill="#ffffff"/>
      <path transform="matrix(1,0,0,-1,434.9828,518.4817)" d="M0 0-3.162 16.452C-10.68 21.708-17.205 28.279-22.395 35.845V-39.192H-7.699V-1.576L-.175-39.192H14.522V7.266C9.401 9.115 4.543 11.506 0 14.356Z" fill="#ffffff"/>
      <path transform="matrix(1,0,0,-1,434.9828,482.5274)" d="M0 0V-21.599C4.543-24.449 9.401-26.84 14.522-28.688V0Z" fill="#ffffff"/>
      <path transform="matrix(1,0,0,-1,431.8205,502.02934)" d="M0 0-3.749 19.502H-19.233V19.393C-14.043 11.827-7.517 5.255 0 0" fill="#ffffff"/>
      <path transform="matrix(1,0,0,-1,475.3215,515.7194)" d="M0 0C-6.622 0-13.044 .85-19.169 2.441V-41.954H-4.209V-5.562L4.014-41.954H19.586L9.437-1.188 9.889 .661C6.65 .24 3.354 0 0 0" fill="#ffffff"/>
      <path transform="matrix(1,0,0,-1,485.2108,515.058)" d="M0 0 7.947 32.531H-7.188L-14.187 2.437V32.531H-29.058V1.78C-22.934 .189-16.511-.661-9.889-.661-6.535-.661-3.239-.421 0 0" fill="#ffffff"/>
      <path transform="matrix(1,0,0,-1,474.3827,329.54804)" d="M0 0V-87" fill="#f6921e"/>
      <path transform="matrix(1,0,0,-1,474.3827,419.0479)" d="M0 0C-1.381 0-2.5 1.119-2.5 2.5V89.5C-2.5 90.881-1.381 92 0 92 1.381 92 2.5 90.881 2.5 89.5V2.5C2.5 1.119 1.381 0 0 0" fill="#ffffff"/>
      <path transform="matrix(1,0,0,-1,524.2738,529.3692)" d="M0 0C.366 0 .738 .081 1.089 .252 2.332 .854 2.85 2.35 2.248 3.592-9.92 28.673-16.403 56.653-16.502 84.51-16.602 112.818-10.118 141.254 2.248 166.744 2.85 167.986 2.332 169.481 1.089 170.084-.154 170.687-1.649 170.169-2.251 168.926-14.947 142.755-21.605 113.559-21.502 84.492-21.4 55.891-14.744 27.161-2.251 1.41-1.819 .519-.928 0 0 0" fill="#ffffff"/>
      <path transform="matrix(1,0,0,-1,427.215,362.625)" d="M0 0C-.603 1.242-.084 2.737 1.158 3.34 2.401 3.944 3.896 3.424 4.499 2.182 13.423-16.215 19.349-36.107 22.056-56.397H17.017C14.341-36.863 8.596-17.72 0 0" fill="#ffffff"/>
    </g>
  </g>
</svg>